<svg width="150" height="150" viewBox="0 0 150 150" fill="none" xmlns="http://www.w3.org/2000/svg">
<path fill-rule="evenodd" clip-rule="evenodd" d="M143.769 85.6412C145.619 86.2652 147.295 86.8281 148.973 87.3792C149.916 87.6891 150.136 88.2402 149.795 89.1921C148.933 91.5957 148.149 94.0265 147.337 96.4474C146.674 98.4279 146.644 98.4601 144.692 97.8106C138.282 95.6779 131.878 93.5286 125.471 91.3909C121.893 90.1972 118.292 89.0684 114.737 87.8128C109.286 85.8873 106.038 81.935 105.457 76.2687C104.836 70.2109 107.941 64.5006 114.499 62.2647C124.684 58.7923 134.919 55.464 145.134 52.0782C146.427 51.6496 146.711 51.7603 147.154 53.0474C148.049 55.6471 148.869 58.2727 149.78 60.8668C150.145 61.9047 149.807 62.3599 148.818 62.684C142.284 64.8241 135.762 66.997 129.241 69.1736C125.701 70.355 122.169 71.5611 118.635 72.7629C117.562 73.1284 116.74 73.7037 116.735 75.0032C116.731 76.3064 117.539 76.8637 118.63 77.2274C125.56 79.5388 132.487 81.8589 139.415 84.1771C140.867 84.6626 142.318 85.1531 143.769 85.6412ZM88.8254 32.2131C87.9309 34.8418 87.2786 37.3747 85.5977 39.4455C82.1503 43.6923 77.6197 45.2788 72.3625 44.2898C67.4349 43.3626 63.9691 40.2762 62.3339 35.5636C58.8325 25.4737 55.5347 15.3119 52.1752 5.17311C51.5745 3.36021 51.6138 3.31877 53.4627 2.67736C55.8369 1.85411 58.2188 1.04818 60.6149 0.292343C61.995 -0.143098 62.2603 0.0381225 62.6996 1.35372C66.0074 11.2656 69.3158 21.1768 72.6249 31.088C72.6872 31.2742 72.7537 31.4591 72.8261 31.6422C73.2024 32.5972 73.8168 33.2355 74.9232 33.2368C76.0687 33.2386 76.7531 32.6269 77.1015 31.5921C78.4661 27.5327 79.8235 23.4715 81.181 19.4097C83.1593 13.4873 85.1317 7.56308 87.1147 1.64196C87.7504 -0.255055 87.8021 -0.26 89.7014 0.38945C91.9688 1.16446 94.2534 1.89184 96.5154 2.68232C98.2789 3.29837 98.3561 3.5334 97.7821 5.25723C94.7918 14.2413 91.8098 23.2272 88.8254 32.2131ZM91.678 126.351C93.7952 132.757 95.8596 138.984 97.9169 145.215C98.4036 146.688 98.3596 146.735 96.8971 147.207C94.3164 148.04 91.7361 148.874 89.1667 149.742C87.8306 150.193 87.6258 150.127 87.1961 148.829C85.5294 143.792 83.865 138.754 82.1965 133.718C80.5405 128.721 78.8744 123.727 77.2279 118.727C76.8564 117.597 76.2759 116.693 74.9695 116.663C73.6459 116.633 73.0464 117.533 72.6724 118.66C69.6518 127.76 66.6282 136.859 63.6011 145.956C63.2414 147.037 62.8437 148.106 62.4823 149.186C62.2359 149.923 61.8134 150.158 61.0424 149.897C58.2129 148.939 55.3751 148.004 52.5307 147.091C51.5668 146.782 51.517 146.246 51.8126 145.373C55.1305 135.586 58.4806 125.808 61.6792 115.982C62.9714 112.013 65.1212 108.87 68.8339 106.884C75.855 103.128 84.8373 106.569 87.5024 114.078C88.9477 118.15 90.2896 122.258 91.678 126.351ZM1.78491 55.8197C2.14697 54.749 2.49602 53.8676 2.72929 52.9565C3.00945 51.8623 3.5834 51.6106 4.63399 51.9731C7.30736 52.8959 10.005 53.7458 12.6879 54.6401C20.0646 57.1006 27.4341 59.584 34.8162 62.029C40.7932 64.0083 44.4827 69.0091 44.4934 75.2252C44.5023 80.6608 40.9149 85.7525 35.6673 87.5586C29.5395 89.6677 23.3802 91.6854 17.2327 93.7376C13.0992 95.1175 8.96159 96.4845 4.82868 97.865C3.35548 98.3568 3.20231 98.3296 2.69067 96.8321C1.81518 94.2677 1.04059 91.6693 0.146694 89.1123C-0.238522 88.0101 0.146688 87.5573 1.16404 87.2252C6.61405 85.4488 12.051 83.6322 17.491 81.8236C22.1515 80.2742 26.8068 78.71 31.4697 77.1686C32.5755 76.8031 33.197 76.0924 33.1809 74.9203C33.1643 73.7451 32.506 73.0938 31.4008 72.7276C21.371 69.408 11.3489 66.0655 1.32612 62.7242C-0.0123422 62.2777 -0.172595 61.9993 0.234582 60.6404C0.718922 59.0242 1.26495 57.426 1.78491 55.8197ZM31.6394 97.0603C33.7667 96.0008 35.735 95.0161 37.7127 94.0494C44.9849 90.4941 53.2632 93.4846 56.2951 100.861C57.9802 104.961 57.5119 108.98 55.5163 112.922C50.8112 122.217 46.1721 131.544 41.5388 140.874C41.0396 141.879 40.5665 142.209 39.4726 141.624C37.0123 140.307 34.5016 139.082 31.9873 137.871C31.0346 137.412 30.8477 136.888 31.3356 135.926C33.7715 131.124 36.1588 126.297 38.5615 121.477C40.9464 116.693 43.3206 111.903 45.7192 107.125C46.2041 106.159 46.1388 105.301 45.4004 104.526C44.6158 103.701 43.7254 103.658 42.7187 104.16C36.4935 107.268 30.2565 110.352 24.026 113.449C20.6113 115.147 17.1942 116.839 13.7961 118.569C13.0031 118.972 12.5069 118.892 12.0997 118.057C10.8087 115.406 9.50228 112.762 8.15372 110.141C7.68363 109.228 8.019 108.814 8.83335 108.41C15.8806 104.924 22.9154 101.412 29.9532 97.9077C30.5159 97.6275 31.0773 97.343 31.6394 97.0603ZM92.7125 107.885C91.5771 100.535 96.9636 93.5743 104.27 92.6527C107.093 92.2965 109.75 92.8197 112.267 94.079C121.725 98.8107 131.174 103.557 140.624 108.303C142.137 109.063 142.189 109.212 141.427 110.737C140.214 113.163 138.952 115.565 137.763 118.002C137.338 118.874 136.851 119.023 135.997 118.595C126.896 114.031 117.785 109.488 108.676 104.941C108.148 104.677 107.623 104.409 107.086 104.165C106.093 103.714 105.187 103.786 104.39 104.609C103.604 105.422 103.686 106.297 104.143 107.216C106.108 111.155 108.074 115.093 110.039 119.032C112.846 124.658 115.639 130.291 118.474 135.903C118.98 136.903 118.797 137.443 117.785 137.927C115.231 139.147 112.708 140.431 110.196 141.733C109.358 142.168 108.864 142.055 108.43 141.177C103.558 131.312 98.6599 121.46 93.7732 111.602C93.1927 110.431 92.8069 109.198 92.7125 107.885ZM95.2316 52.0108C92.0234 47.3607 91.6489 42.6228 94.083 37.7217C98.8214 28.1822 103.604 18.665 108.374 9.14094C109.006 7.87791 109.224 7.81235 110.464 8.43273C112.855 9.62895 115.244 10.827 117.629 12.0356C118.917 12.6894 119.019 12.982 118.396 14.2351C113.74 23.5971 109.079 32.9566 104.42 42.3179C104.07 43.0199 103.648 43.7028 103.923 44.5489C104.384 45.9641 105.78 46.4868 107.269 45.7513C112.273 43.2797 117.27 40.7939 122.268 38.3093C126.737 36.0881 131.201 33.8559 135.672 31.6391C137.034 30.9637 137.3 31.0515 137.97 32.3683C139.147 34.6804 140.316 36.9961 141.474 39.3181C142.194 40.7611 142.118 40.9565 140.701 41.6635C131.241 46.3853 121.783 51.1121 112.32 55.8289C106.064 58.9469 99.6494 57.5082 95.2316 52.0108ZM43.5443 57.3864C41.5001 57.2955 39.7427 56.8699 38.111 56.0603C28.3589 51.2203 18.6247 46.3445 8.87139 41.507C7.94604 41.0481 7.80297 40.5421 8.26357 39.649C9.52487 37.2046 10.7167 34.7243 11.9584 32.2694C12.6196 30.9624 12.8292 30.8882 14.1392 31.5401C23.6046 36.2521 33.0658 40.9726 42.5234 45.6994C43.4684 46.1719 44.3748 46.3773 45.2621 45.6134C45.9494 45.0209 46.213 44.2675 45.9916 43.3886C45.8972 43.0138 45.699 42.6612 45.5239 42.3099C40.8823 32.985 36.236 23.662 31.5944 14.3365C30.8441 12.8292 30.9011 12.724 32.4509 11.9521C34.7372 10.8128 37.0064 9.64009 39.2951 8.50633C40.4549 7.93173 41.0241 8.06903 41.5435 9.10568C46.3994 18.8054 51.4012 28.437 56.0357 38.2418C60.3562 47.3818 53.6721 57.4161 43.5443 57.3864Z" fill="#FF6A00"/>
</svg>
