<?xml version="1.0" encoding="UTF-8" standalone="no"?>
<!DOCTYPE svg PUBLIC "-//W3C//DTD SVG 1.1//EN" "http://www.w3.org/Graphics/SVG/1.1/DTD/svg11.dtd">
<svg width="100%" height="100%" viewBox="0 0 973 190" version="1.1" xmlns="http://www.w3.org/2000/svg" xmlns:xlink="http://www.w3.org/1999/xlink" xml:space="preserve" xmlns:serif="http://www.serif.com/" style="fill-rule:evenodd;clip-rule:evenodd;stroke-linejoin:round;stroke-miterlimit:2;">
    <g transform="matrix(1,0,0,1,-732.283465,-1420.414797)">
        <g transform="matrix(1,0,0,1,0,-2747.610493)">
            <g transform="matrix(3.830602,0,0,3.830602,-2526.399387,-1141.388336)">
                <path d="M931.114,1429.227C928.414,1429.227 925.922,1428.752 923.639,1427.802C921.356,1426.852 919.381,1425.552 917.714,1423.902C916.047,1422.252 914.739,1420.302 913.789,1418.052C912.839,1415.802 912.364,1413.361 912.364,1410.727C912.364,1408.094 912.839,1405.652 913.789,1403.402C914.739,1401.152 916.047,1399.202 917.714,1397.552C919.381,1395.902 921.356,1394.602 923.639,1393.652C925.922,1392.702 928.414,1392.227 931.114,1392.227C933.814,1392.227 936.306,1392.702 938.589,1393.652C940.872,1394.602 942.847,1395.902 944.514,1397.552C946.181,1399.202 947.489,1401.152 948.439,1403.402C949.389,1405.652 949.864,1408.094 949.864,1410.727C949.864,1413.361 949.389,1415.802 948.439,1418.052C947.489,1420.302 946.181,1422.252 944.514,1423.902C942.847,1425.552 940.872,1426.852 938.589,1427.802C936.306,1428.752 933.814,1429.227 931.114,1429.227ZM931.114,1423.727C932.981,1423.727 934.697,1423.411 936.264,1422.777C937.831,1422.144 939.172,1421.261 940.289,1420.127C941.406,1418.994 942.281,1417.627 942.914,1416.027C943.547,1414.427 943.864,1412.661 943.864,1410.727C943.864,1408.794 943.547,1407.027 942.914,1405.427C942.281,1403.827 941.406,1402.461 940.289,1401.327C939.172,1400.194 937.831,1399.311 936.264,1398.677C934.697,1398.044 932.981,1397.727 931.114,1397.727C929.247,1397.727 927.531,1398.044 925.964,1398.677C924.397,1399.311 923.047,1400.194 921.914,1401.327C920.781,1402.461 919.906,1403.827 919.289,1405.427C918.672,1407.027 918.364,1408.794 918.364,1410.727C918.364,1412.661 918.672,1414.427 919.289,1416.027C919.906,1417.627 920.781,1418.994 921.914,1420.127C923.047,1421.261 924.397,1422.144 925.964,1422.777C927.531,1423.411 929.247,1423.727 931.114,1423.727Z" style="fill:white;fill-rule:nonzero;"/>
                <path d="M965.364,1428.727C963.564,1428.727 961.881,1428.402 960.314,1427.752C958.747,1427.102 957.397,1426.186 956.264,1425.002C955.131,1423.819 954.239,1422.419 953.589,1420.802C952.939,1419.186 952.614,1417.411 952.614,1415.477C952.614,1413.544 952.939,1411.769 953.589,1410.152C954.239,1408.536 955.131,1407.136 956.264,1405.952C957.397,1404.769 958.747,1403.852 960.314,1403.202C961.881,1402.552 963.564,1402.227 965.364,1402.227C966.631,1402.227 967.781,1402.361 968.814,1402.627C969.847,1402.894 970.772,1403.244 971.589,1403.677C972.406,1404.111 973.114,1404.611 973.714,1405.177C974.314,1405.744 974.847,1406.311 975.314,1406.877C976.381,1408.211 977.147,1409.744 977.614,1411.477L972.114,1411.477C971.847,1410.644 971.414,1409.894 970.814,1409.227C970.314,1408.661 969.631,1408.144 968.764,1407.677C967.897,1407.211 966.764,1406.977 965.364,1406.977C964.364,1406.977 963.422,1407.177 962.539,1407.577C961.656,1407.977 960.889,1408.544 960.239,1409.277C959.589,1410.011 959.072,1410.902 958.689,1411.952C958.306,1413.002 958.114,1414.177 958.114,1415.477C958.114,1416.777 958.306,1417.952 958.689,1419.002C959.072,1420.052 959.589,1420.944 960.239,1421.677C960.889,1422.411 961.656,1422.977 962.539,1423.377C963.422,1423.777 964.364,1423.977 965.364,1423.977C966.797,1423.977 967.964,1423.744 968.864,1423.277C969.764,1422.811 970.481,1422.294 971.014,1421.727C971.614,1421.094 972.064,1420.344 972.364,1419.477L977.614,1419.477C977.147,1421.244 976.381,1422.794 975.314,1424.127C974.847,1424.694 974.314,1425.252 973.714,1425.802C973.114,1426.352 972.406,1426.844 971.589,1427.277C970.772,1427.711 969.847,1428.061 968.814,1428.327C967.781,1428.594 966.631,1428.727 965.364,1428.727Z" style="fill:white;fill-rule:nonzero;"/>
                <path d="M982.114,1407.477L979.114,1407.477L979.114,1402.727L982.114,1402.727L982.114,1397.227L987.364,1397.227L987.364,1402.727L995.114,1402.727L995.114,1407.477L987.364,1407.477L987.364,1423.477L995.364,1423.477L995.364,1428.227L982.114,1428.227L982.114,1407.477Z" style="fill:white;fill-rule:nonzero;"/>
                <path d="M1009.614,1428.727C1007.914,1428.727 1006.339,1428.411 1004.889,1427.777C1003.439,1427.144 1002.172,1426.252 1001.089,1425.102C1000.006,1423.952 999.156,1422.561 998.539,1420.927C997.922,1419.294 997.614,1417.477 997.614,1415.477C997.614,1413.477 997.922,1411.661 998.539,1410.027C999.156,1408.394 1000.006,1407.002 1001.089,1405.852C1002.172,1404.702 1003.439,1403.811 1004.889,1403.177C1006.339,1402.544 1007.914,1402.227 1009.614,1402.227C1010.914,1402.227 1012.064,1402.427 1013.064,1402.827C1014.064,1403.227 1014.897,1403.661 1015.564,1404.127C1016.364,1404.694 1017.047,1405.311 1017.614,1405.977L1017.864,1405.977L1017.864,1402.727L1023.114,1402.727L1023.114,1428.227L1017.864,1428.227L1017.864,1424.727L1017.614,1424.727C1017.047,1425.461 1016.364,1426.127 1015.564,1426.727C1014.897,1427.227 1014.064,1427.686 1013.064,1428.102C1012.064,1428.519 1010.914,1428.727 1009.614,1428.727ZM1010.614,1423.977C1012.747,1423.977 1014.489,1423.252 1015.839,1421.802C1017.189,1420.352 1017.864,1418.244 1017.864,1415.477C1017.864,1412.711 1017.189,1410.602 1015.839,1409.152C1014.489,1407.702 1012.747,1406.977 1010.614,1406.977C1008.347,1406.977 1006.531,1407.702 1005.164,1409.152C1003.797,1410.602 1003.114,1412.711 1003.114,1415.477C1003.114,1418.244 1003.797,1420.352 1005.164,1421.802C1006.531,1423.252 1008.347,1423.977 1010.614,1423.977Z" style="fill:white;fill-rule:nonzero;"/>
                <path d="M1028.364,1393.227L1033.614,1393.227L1033.614,1423.477L1039.364,1423.477L1039.364,1428.227L1028.364,1428.227L1028.364,1393.227Z" style="fill:white;fill-rule:nonzero;"/>
                <path d="M1042.114,1402.727L1047.364,1402.727L1047.364,1428.227L1042.114,1428.227L1042.114,1402.727ZM1044.714,1398.977C1043.847,1398.977 1043.114,1398.677 1042.514,1398.077C1041.914,1397.477 1041.614,1396.744 1041.614,1395.877C1041.614,1395.011 1041.914,1394.269 1042.514,1393.652C1043.114,1393.036 1043.847,1392.727 1044.714,1392.727C1045.581,1392.727 1046.322,1393.036 1046.939,1393.652C1047.556,1394.269 1047.864,1395.011 1047.864,1395.877C1047.864,1396.744 1047.556,1397.477 1046.939,1398.077C1046.322,1398.677 1045.581,1398.977 1044.714,1398.977Z" style="fill:white;fill-rule:nonzero;"/>
                <path d="M1052.614,1402.727L1057.864,1402.727L1057.864,1406.227L1058.114,1406.227C1058.581,1405.494 1059.197,1404.827 1059.964,1404.227C1060.631,1403.727 1061.456,1403.269 1062.439,1402.852C1063.422,1402.436 1064.647,1402.227 1066.114,1402.227C1069.247,1402.227 1071.697,1403.136 1073.464,1404.952C1075.231,1406.769 1076.114,1409.444 1076.114,1412.977L1076.114,1428.227L1070.864,1428.227L1070.864,1413.477C1070.864,1411.211 1070.364,1409.561 1069.364,1408.527C1068.364,1407.494 1066.864,1406.977 1064.864,1406.977C1063.864,1406.977 1062.939,1407.161 1062.089,1407.527C1061.239,1407.894 1060.497,1408.402 1059.864,1409.052C1059.231,1409.702 1058.739,1410.486 1058.389,1411.402C1058.039,1412.319 1057.864,1413.344 1057.864,1414.477L1057.864,1428.227L1052.614,1428.227L1052.614,1402.727Z" style="fill:white;fill-rule:nonzero;"/>
                <path d="M1081.114,1393.227L1086.364,1393.227L1086.364,1412.727L1090.114,1412.727L1097.864,1402.727L1103.864,1402.727L1094.614,1414.477L1104.614,1428.227L1098.114,1428.227L1090.364,1417.477L1086.364,1417.477L1086.364,1428.227L1081.114,1428.227L1081.114,1393.227Z" style="fill:white;fill-rule:nonzero;"/>
            </g>
        </g>
        <g transform="matrix(1,0,0,1,0,-2747.610493)">
            <g id="Iso" transform="matrix(1.051578,0,0,1.051578,-24.542234,3452.952365)">
                <g transform="matrix(0.711363,0,0,0.741289,-150.728176,556.706462)">
                    <path d="M1465.832,304.784C1468.948,305.793 1471.771,306.703 1474.599,307.594C1476.188,308.095 1476.558,308.986 1475.983,310.525C1474.531,314.411 1473.21,318.341 1471.843,322.255C1470.726,325.457 1470.675,325.509 1467.386,324.459C1456.587,321.011 1445.798,317.536 1435.003,314.08C1428.975,312.15 1422.909,310.325 1416.919,308.295C1407.736,305.182 1402.264,298.792 1401.285,289.631C1400.238,279.837 1405.47,270.605 1416.518,266.99C1433.678,261.376 1450.921,255.995 1468.131,250.521C1470.31,249.828 1470.787,250.007 1471.534,252.088C1473.042,256.291 1474.423,260.536 1475.959,264.73C1476.574,266.408 1476.004,267.144 1474.337,267.668C1463.33,271.128 1452.342,274.641 1441.355,278.16C1435.391,280.07 1429.44,282.02 1423.487,283.963C1421.679,284.554 1420.293,285.484 1420.286,287.585C1420.278,289.692 1421.64,290.593 1423.478,291.181C1435.153,294.918 1446.824,298.669 1458.495,302.417C1460.942,303.202 1463.386,303.995 1465.832,304.784ZM1373.264,218.404C1371.757,222.654 1370.658,226.749 1367.826,230.097C1362.018,236.963 1354.385,239.528 1345.528,237.929C1337.226,236.43 1331.387,231.44 1328.632,223.821C1322.733,207.508 1317.177,191.079 1311.517,174.687C1310.505,171.756 1310.571,171.689 1313.686,170.652C1317.686,169.321 1321.699,168.018 1325.736,166.796C1328.061,166.092 1328.508,166.385 1329.248,168.512C1334.821,184.537 1340.395,200.561 1345.97,216.585C1346.075,216.886 1346.187,217.185 1346.309,217.481C1346.943,219.025 1347.978,220.057 1349.842,220.059C1351.772,220.062 1352.925,219.073 1353.512,217.4C1355.811,210.837 1358.098,204.271 1360.385,197.704C1363.718,188.129 1367.041,178.551 1370.382,168.978C1371.453,165.911 1371.54,165.903 1374.74,166.953C1378.56,168.206 1382.409,169.382 1386.22,170.66C1389.191,171.656 1389.321,172.036 1388.354,174.823C1383.316,189.348 1378.292,203.876 1373.264,218.404ZM1378.07,370.602C1381.637,380.958 1385.115,391.027 1388.581,401.1C1389.401,403.482 1389.327,403.557 1386.863,404.32C1382.515,405.668 1378.168,407.016 1373.839,408.419C1371.588,409.149 1371.243,409.042 1370.519,406.943C1367.711,398.799 1364.907,390.655 1362.096,382.512C1359.306,374.433 1356.499,366.359 1353.725,358.275C1353.099,356.449 1352.121,354.987 1349.92,354.939C1347.69,354.89 1346.68,356.346 1346.05,358.168C1340.961,372.88 1335.867,387.59 1330.767,402.299C1330.161,404.046 1329.491,405.774 1328.882,407.521C1328.467,408.712 1327.755,409.092 1326.456,408.67C1321.689,407.121 1316.908,405.609 1312.116,404.133C1310.492,403.633 1310.408,402.767 1310.906,401.356C1316.496,385.532 1322.14,369.724 1327.529,353.837C1329.706,347.42 1333.328,342.34 1339.583,339.129C1351.412,333.056 1366.545,338.619 1371.035,350.759C1373.47,357.342 1375.731,363.985 1378.07,370.602ZM1226.621,256.57C1227.231,254.839 1227.819,253.414 1228.212,251.941C1228.684,250.172 1229.651,249.765 1231.421,250.351C1235.925,251.843 1240.47,253.217 1244.99,254.663C1257.418,258.641 1269.834,262.656 1282.271,266.609C1292.341,269.809 1298.557,277.894 1298.575,287.944C1298.59,296.732 1292.546,304.964 1283.705,307.884C1273.381,311.294 1263.004,314.556 1252.647,317.874C1245.683,320.105 1238.712,322.315 1231.749,324.547C1229.267,325.342 1229.009,325.298 1228.147,322.877C1226.672,318.731 1225.367,314.53 1223.861,310.396C1223.212,308.614 1223.861,307.882 1225.575,307.345C1234.757,304.473 1243.917,301.536 1253.082,298.612C1260.934,296.107 1268.777,293.578 1276.633,291.086C1278.496,290.495 1279.543,289.346 1279.516,287.451C1279.488,285.551 1278.379,284.498 1276.517,283.906C1259.619,278.539 1242.734,273.135 1225.848,267.733C1223.593,267.011 1223.323,266.561 1224.009,264.364C1224.825,261.751 1225.745,259.167 1226.621,256.57ZM1379.813,340.747C1377.9,328.864 1386.975,317.61 1399.285,316.12C1404.04,315.544 1408.517,316.39 1412.758,318.426C1428.692,326.076 1444.612,333.749 1460.533,341.423C1463.082,342.651 1463.169,342.893 1461.886,345.357C1459.842,349.28 1457.715,353.163 1455.713,357.104C1454.997,358.514 1454.176,358.754 1452.737,358.062C1437.404,350.683 1422.054,343.339 1406.707,335.987C1405.818,335.561 1404.933,335.127 1404.029,334.733C1402.356,334.004 1400.829,334.119 1399.486,335.451C1398.162,336.765 1398.3,338.18 1399.071,339.665C1402.381,346.033 1405.693,352.401 1409.004,358.768C1413.734,367.864 1418.438,376.972 1423.215,386.045C1424.067,387.662 1423.76,388.535 1422.054,389.317C1417.752,391.29 1413.501,393.365 1409.268,395.471C1407.856,396.174 1407.024,395.991 1406.294,394.572C1398.085,378.623 1389.833,362.694 1381.6,346.757C1380.622,344.863 1379.972,342.87 1379.813,340.747ZM1384.057,250.412C1378.652,242.894 1378.021,235.234 1382.122,227.31C1390.105,211.887 1398.162,196.5 1406.199,181.102C1407.264,179.06 1407.631,178.954 1409.72,179.957C1413.748,181.891 1417.774,183.828 1421.791,185.782C1423.962,186.839 1424.134,187.312 1423.084,189.338C1415.24,204.474 1407.387,219.606 1399.537,234.741C1398.948,235.876 1398.236,236.98 1398.7,238.348C1399.477,240.636 1401.828,241.481 1404.337,240.292C1412.768,236.296 1421.187,232.277 1429.607,228.26C1437.136,224.669 1444.657,221.06 1452.189,217.476C1454.484,216.384 1454.933,216.526 1456.062,218.655C1458.045,222.393 1460.014,226.137 1461.965,229.891C1463.178,232.224 1463.05,232.54 1460.663,233.683C1444.725,241.317 1428.79,248.959 1412.847,256.585C1402.307,261.626 1391.5,259.3 1384.057,250.412ZM1296.976,259.103C1293.532,258.956 1290.571,258.268 1287.822,256.959C1271.392,249.134 1254.992,241.251 1238.56,233.43C1237.001,232.688 1236.76,231.87 1237.536,230.426C1239.661,226.474 1241.669,222.464 1243.761,218.495C1244.875,216.382 1245.228,216.262 1247.435,217.316C1263.382,224.934 1279.322,232.566 1295.256,240.208C1296.848,240.972 1298.375,241.304 1299.87,240.069C1301.028,239.111 1301.472,237.893 1301.099,236.472C1300.94,235.866 1300.606,235.296 1300.311,234.728C1292.491,219.652 1284.663,204.579 1276.843,189.502C1275.579,187.065 1275.675,186.895 1278.286,185.647C1282.138,183.805 1285.961,181.909 1289.817,180.076C1291.771,179.147 1292.73,179.369 1293.605,181.045C1301.786,196.727 1310.213,212.299 1318.021,228.151C1325.3,242.928 1314.039,259.151 1296.976,259.103Z" style="fill:rgb(255,94,35);"/>
                </g>
                <g transform="matrix(0.711363,0,0,0.741289,-150.728176,556.706462)">
                    <path d="M1276.919,323.246C1280.503,321.533 1283.819,319.941 1287.151,318.378C1299.403,312.63 1313.35,317.465 1318.458,329.391C1321.297,336.019 1320.508,342.517 1317.146,348.891C1309.219,363.918 1301.403,378.997 1293.597,394.082C1292.756,395.707 1291.959,396.241 1290.116,395.294C1285.971,393.166 1281.741,391.185 1277.505,389.226C1275.9,388.484 1275.585,387.637 1276.407,386.082C1280.511,378.318 1284.533,370.514 1288.581,362.722C1292.599,354.987 1296.599,347.243 1300.64,339.518C1301.457,337.957 1301.347,336.569 1300.103,335.316C1298.781,333.983 1297.281,333.913 1295.585,334.725C1285.097,339.749 1274.589,344.736 1264.092,349.743C1258.339,352.487 1252.582,355.224 1246.857,358.02C1245.521,358.672 1244.685,358.542 1243.999,357.192C1241.824,352.907 1239.623,348.632 1237.351,344.394C1236.559,342.918 1237.124,342.248 1238.496,341.596C1250.369,335.96 1262.221,330.282 1274.078,324.616C1275.026,324.163 1275.972,323.703 1276.919,323.246Z" style="fill:white;"/>
                </g>
            </g>
        </g>
    </g>
</svg>
